<svg id="Layer_1" enable-background="new 0 0 512 512" height="512" viewBox="0 0 512 512" width="512" xmlns="http://www.w3.org/2000/svg"><g><path d="m423.747 0h-72.34v87.484c0 8.284-6.716 15-15 15h-169.412c-8.284 0-15-6.716-15-15v-87.484h-63.742c-8.284 0-15 6.716-15 15v482c0 8.284 6.716 15 15 15h335.494c8.284 0 15-6.716 15-15v-482c0-8.284-6.716-15-15-15zm-262.691 283.972 19.001-19.001c5.857-5.857 15.355-5.857 21.213 0s5.858 15.355 0 21.213l-29.607 29.607c-5.858 5.858-15.355 5.858-21.213 0l-17.73-17.729c-5.858-5.857-5.858-15.354 0-21.213 5.858-5.857 15.355-5.859 21.213 0zm-28.337 76.013c5.858-5.857 15.355-5.859 21.213 0l7.124 7.123 19.001-19.001c5.857-5.857 15.355-5.857 21.213 0s5.858 15.355 0 21.213l-29.607 29.607c-5.858 5.858-15.355 5.858-21.213 0l-17.73-17.729c-5.858-5.857-5.858-15.354-.001-21.213zm124.677-152.937h106.76c19.902.793 19.887 29.215 0 30h-106.76c-19.902-.793-19.886-29.215 0-30zm0 83.137h106.76c19.902.793 19.887 29.215 0 30h-106.76c-19.902-.793-19.886-29.215 0-30zm0 83.136h106.76c19.902.793 19.887 29.215 0 30h-106.76c-19.902-.792-19.886-29.214 0-30zm-103.463-179.609 7.124 7.123 19.001-19.001c5.857-5.857 15.355-5.857 21.213 0s5.858 15.355 0 21.213l-29.607 29.607c-5.858 5.858-15.355 5.858-21.213 0l-17.73-17.729c-5.858-5.857-5.858-15.354 0-21.213 5.857-5.858 15.353-5.859 21.212 0z"/><path d="m181.995 0h139.412v72.484h-139.412z"/></g></svg>